<svg fill="#fff" xmlns="http://www.w3.org/2000/svg" viewBox="0 0 465 465">
    <path d="M457.5 211.4H336.8v-19c0-32.2-14.6-62.2-40.2-82.2a7.5 7.5 0 1 0-9.2 11.9 88.9 88.9 0 0 1 34.4 70.4v18.9H306a36.7 36.7 0 0 0-35.6-29.2 38.7 38.7 0 0 0-75.8 0 36.7 36.7 0 0 0-35.6 29.2h-15.8v-19a88.9 88.9 0 0 1 34.4-70.3 7.5 7.5 0 0 0-9.2-11.9c-25.6 20-40.2 50-40.2 82.3v18.9H7.5a7.5 7.5 0 0 0-7.5 7.5 99 99 0 0 0 98.9 98.8h29.6c3 42.2 31 78.5 71.7 91.7a7.5 7.5 0 0 0 9.4-4.8c1.3-3.9-.8-8.1-4.8-9.4a89.2 89.2 0 0 1-61.3-77.5h15a74.4 74.4 0 0 0 148 0h15a89.2 89.2 0 0 1-61.3 77.5 7.5 7.5 0 0 0 4.6 14.2 104.1 104.1 0 0 0 71.7-91.7h29.6A99 99 0 0 0 465 219c0-4.2-3.4-7.5-7.5-7.5zm-262.7-14.2H233.6a7.5 7.5 0 0 0 0-15h-23.5a23.7 23.7 0 0 1 46 7.5c0 4.2 3.4 7.5 7.5 7.5h6.6a21.7 21.7 0 0 1 0 43.3h-17.7c-7.7 0-14.8 3-20 8.1a28.6 28.6 0 0 0-20-8.1h-17.7a21.7 21.7 0 0 1 0-43.3zm-144.4 90h47.4a7.5 7.5 0 0 0 0-15H34.3c-4-4.7-7.4-9.8-10.2-15.4h55.6a7.5 7.5 0 0 0 0-15H18.2c-1.4-5-2.4-10.1-2.9-15.4h142.9v76.3H98.9c-18 0-34.8-5.7-48.5-15.4zm122.8 23v-61.8c6 4.5 13.5 7 21.6 7h17.7c5.5 0 10.3 3.3 12.5 8.3V369a59.4 59.4 0 0 1-51.8-58.9zm66.8 58.9V263.7c2.2-5 7-8.2 12.5-8.2h17.7c8 0 15.6-2.6 21.6-7.1v61.8a59.4 59.4 0 0 1-51.8 58.9zm66.8-66.4v-76.3h142.9a83.3 83.3 0 0 1-2.9 15.4h-61.5a7.5 7.5 0 0 0 0 15h55.6a84.2 84.2 0 0 1-10.2 15.5h-63.5a7.5 7.5 0 0 0 0 15h47.4a83.4 83.4 0 0 1-48.5 15.4h-59.3z"/>
    <path d="M232.5 136.1a40.5 40.5 0 1 0 0-81 40.5 40.5 0 0 0 0 81zm0-66a25.5 25.5 0 1 1 0 51 25.5 25.5 0 0 1 0-51z"/>
</svg>
